<?xml version="1.0" encoding="iso-8859-1"?>
<!-- Generator: Adobe Illustrator 19.0.0, SVG Export Plug-In . SVG Version: 6.00 Build 0)  -->
<svg version="1.1" id="Capa_1" xmlns="http://www.w3.org/2000/svg" xmlns:xlink="http://www.w3.org/1999/xlink" x="0px" y="0px"
	 viewBox="0 0 409.601 409.601" style="enable-background:new 0 0 409.601 409.601;" xml:space="preserve">
<g>
	<g>
		<path d="M79.794,173.285c-2.171-2.942-6.211-3.487-9.025-1.217c-2.813,2.272-3.333,6.499-1.162,9.441l16.703,22.647
			l-16.804,24.073c-2.096,3.002-1.469,7.214,1.401,9.405c2.869,2.193,6.895,1.536,8.991-1.466l22.502-32.234L79.794,173.285z"/>
	</g>
</g>
<g>
	<g>
		<path d="M45.661,173.285c-2.171-2.942-6.211-3.487-9.025-1.217c-2.813,2.272-3.333,6.499-1.162,9.441l16.703,22.647
			l-16.804,24.073c-2.096,3.002-1.469,7.214,1.401,9.405c2.869,2.193,6.895,1.536,8.991-1.466l22.502-32.234L45.661,173.285z"/>
	</g>
</g>
<g>
	<g>
		<path d="M11.528,173.285c-2.171-2.942-6.211-3.487-9.025-1.217c-2.813,2.272-3.333,6.499-1.162,9.441l16.703,22.647L1.24,228.229
			c-2.096,3.002-1.469,7.214,1.401,9.405c2.869,2.193,6.895,1.536,8.991-1.466l22.502-32.234L11.528,173.285z"/>
	</g>
</g>
<g>
	<g>
		<rect x="0.001" y="197.974" width="327.68" height="13.653"/>
	</g>
</g>
<g>
	<g>
		<path d="M405.635,198.6l-88.747-40.96c-2.454-1.13-5.374-0.707-7.414,1.113c-2.026,1.816-2.787,4.663-1.92,7.247l12.933,38.799
			l-12.933,38.799c-0.867,2.584-0.108,5.431,1.92,7.247c1.28,1.143,2.906,1.741,4.553,1.741c0.973,0,1.947-0.206,2.86-0.625
			l88.747-40.96c2.42-1.116,3.966-3.536,3.966-6.2C409.601,202.136,408.055,199.716,405.635,198.6z M325.495,232.95l8.66-25.991
			c0.473-1.403,0.473-2.917,0-4.32l-8.66-25.991l60.986,28.151L325.495,232.95z"/>
	</g>
</g>
</svg>
